<svg xmlns="http://www.w3.org/2000/svg" version="1.1" xmlns:xlink="http://www.w3.org/1999/xlink" xmlns:svgjs="http://svgjs.dev/svgjs" width="1000" height="1000" viewBox="0 0 1000 1000"><rect width="1000" height="1000" fill="#37a7d6"></rect><g transform="matrix(0.7,0,0,0.7,149.57576546158168,282.1265587044535)"><svg viewBox="0 0 396 247" data-background-color="#37a7d6" preserveAspectRatio="xMidYMid meet" height="623" width="1000" xmlns="http://www.w3.org/2000/svg" xmlns:xlink="http://www.w3.org/1999/xlink"><g id="tight-bounds" transform="matrix(1,0,0,1,0.2399955388766557,-0.09999999999999432)"><svg viewBox="0 0 395.52 247.2" height="247.2" width="395.52"><g><svg></svg></g><g><svg viewBox="0 0 395.52 247.2" height="247.2" width="395.52"><g><g><path xmlns="http://www.w3.org/2000/svg" d="M79.276 247.2c6.19-18.71 12.2-37.196 18.03-55.457l51.471 0c-2.341 8.299-4.539 16.047-6.596 23.245-2.332 8.053-4.269 14.654-5.808 19.802-1.54 5.193-2.42 8.119-2.641 8.78zM141.521 48.186c3.388-11.881 6.403-22.883 9.043-33.004 12.101 0 23.543-0.66 34.324-1.98 10.781-1.32 22.443-2.53 34.985-3.631-0.66 4.841-1.364 10.275-2.113 16.304-0.792 6.073-1.694 12.41-2.706 19.01-0.508 3.463-1.034 6.987-1.578 10.572h-74.072c0.717-2.442 1.422-4.865 2.117-7.271zM240.203 44.027c2.728-6.689 5.369-13.07 7.921-19.142 2.508-6.029 4.863-11.353 7.063-15.974 5.501-0.44 10.671-0.99 15.512-1.65 4.841-0.66 9.681-1.386 14.522-2.178 4.841-0.748 9.747-1.518 14.719-2.311 4.929-0.748 10.363-1.672 16.304-2.772-2.2 12.762-4.291 25.853-6.27 39.275-0.797 5.405-1.559 10.799-2.286 16.182l-72.07 0c1.508-3.858 3.036-7.668 4.585-11.43zM289.511 235.649l-57.427 10.231c0-1.1 0.176-4.07 0.528-8.911 0.308-4.841 0.748-10.781 1.32-17.822 0.528-7.041 1.298-14.852 2.311-23.433 0.149-1.324 0.299-2.647 0.449-3.971l56.427 0c-1.305 14.839-2.507 29.474-3.608 43.906zM209.641 215.846c-3.74 10.121-7.041 19.802-9.901 29.044-7.701 0.22-14.302 0.484-19.802 0.792-5.501 0.352-11.881 0.748-19.142 1.188l4.754-55.127 52.971 0c-3 8.168-5.96 16.203-8.88 24.103z" fill="#ffffff" fill-rule="nonzero" stroke="none" stroke-width="1" stroke-linecap="butt" stroke-linejoin="miter" stroke-miterlimit="10" stroke-dasharray="" stroke-dashoffset="0" font-family="none" font-weight="none" font-size="none" text-anchor="none" style="mix-blend-mode: normal" data-fill-palette-color="tertiary"></path></g></g><g transform="matrix(1,0,0,1,0,77.31185709886049)"><svg viewBox="0 0 395.52 92.576285802279" height="92.576285802279" width="395.52"><g><svg viewBox="0 0 395.52 92.576285802279" height="92.576285802279" width="395.52"><g><svg viewBox="0 0 395.52000000000004 92.57628580227902" height="92.576285802279" width="395.52"><g><svg viewBox="0 0 395.52000000000004 92.57628580227902" height="92.57628580227902" width="395.52000000000004"><g id="textblocktransform"><svg viewBox="0 0 395.52000000000004 92.57628580227902" height="92.57628580227902" width="395.52000000000004" id="textblock"><g><svg viewBox="0 0 395.52000000000004 92.57628580227902" height="92.57628580227902" width="395.52000000000004"><g transform="matrix(1,0,0,1,0,0)"><svg width="395.52000000000004" viewBox="-1.5 -37.75 162.33999633789062 38" height="92.57628580227902" data-palette-color="#ffffff"><path d="M6.75-0.85L-1.5-0.3Q0.7-6.95 2.7-13.35L2.7-13.35Q3.55-16.05 4.45-19 5.35-21.95 6.25-24.85 7.15-27.75 7.93-30.45 8.7-33.15 9.3-35.45L9.3-35.45Q12.05-35.45 14.5-35.75 16.95-36.05 19.8-36.3L19.8-36.3Q19.65-35.2 19.48-33.83 19.3-32.45 19.07-30.95 18.85-29.45 18.6-27.85 18.35-26.25 18-23.75 17.65-21.25 17.05-17.5L17.05-17.5 17.7-17.5Q19.15-21.3 20.1-23.83 21.05-26.35 21.65-27.95 22.25-29.55 22.88-31.08 23.5-32.6 24.08-33.98 24.65-35.35 25.15-36.4L25.15-36.4Q26.4-36.5 27.5-36.65 28.6-36.8 29.7-36.98 30.8-37.15 31.93-37.33 33.05-37.5 34.4-37.75L34.4-37.75Q33.9-34.85 33.45-31.8 33-28.75 32.65-25.73 32.3-22.7 31.98-19.75 31.65-16.8 31.4-14.15L31.4-14.15Q30.8-7.95 30.35-2.05L30.35-2.05 21.65-0.5Q21.65-0.75 21.73-1.85 21.8-2.95 21.93-4.55 22.05-6.15 22.28-8.1 22.5-10.05 22.73-12 22.95-13.95 23.2-15.78 23.45-17.6 23.7-18.9L23.7-18.9 23.25-18.9Q22.55-16.8 21.7-14.48 20.85-12.15 19.98-9.75 19.1-7.35 18.25-5.05 17.4-2.75 16.75-0.65L16.75-0.65Q15-0.6 13.75-0.53 12.5-0.45 10.85-0.35L10.85-0.35 12.45-18.9 11.7-18.9Q11.6-18.25 11.2-16.73 10.8-15.2 10.28-13.23 9.75-11.25 9.15-9.13 8.55-7 8.03-5.18 7.5-3.35 7.15-2.18 6.8-1 6.75-0.85L6.75-0.85ZM47.5-2.45L31.35 0.05 37.9-35.5 53.7-36.85Q53.35-35.75 53.1-34.6L53.1-34.6Q52.85-33.65 52.62-32.63 52.4-31.6 52.25-30.8L52.25-30.8Q51.75-30.75 50.82-30.73 49.9-30.7 48.85-30.68 47.8-30.65 46.72-30.65 45.65-30.65 44.85-30.65L44.85-30.65 43.1-21.7Q44.65-21.8 46-21.85L46-21.85Q47.1-21.9 48.25-21.9 49.4-21.9 49.95-21.95L49.95-21.95Q49.75-20.55 49.57-19.2 49.4-17.85 49.15-16.45L49.15-16.45Q48.65-16.4 47.52-16.38 46.4-16.35 45.25-16.3L45.25-16.3Q43.95-16.25 42.4-16.2L42.4-16.2 40.7-7 48-8.15 47.5-2.45ZM73.45-25.55Q73.45-22.95 72.7-20.03 71.95-17.1 70.59-14.23 69.25-11.35 67.27-8.72 65.3-6.1 62.8-4.13 60.3-2.15 57.32-0.95 54.35 0.25 51 0.25L51 0.25Q50.3 0.25 49.6 0.18 48.9 0.1 48.2 0L48.2 0Q49.55-6.9 50.85-13.45L50.85-13.45Q51.35-16.2 51.9-19.18 52.45-22.15 52.95-25.05 53.45-27.95 53.92-30.6 54.4-33.25 54.7-35.4L54.7-35.4Q56.85-35.8 59.05-36.15 61.25-36.5 63.55-36.5L63.55-36.5Q66.25-36.5 68.12-35.65 70-34.8 71.17-33.3 72.34-31.8 72.9-29.8 73.45-27.8 73.45-25.55L73.45-25.55ZM61.65-29.45Q61.1-26.5 60.5-23.8 59.9-21.1 59.3-18.35 58.7-15.6 58.1-12.6 57.5-9.6 56.95-6.05L56.95-6.05Q58.15-6.85 59.27-8.22 60.4-9.6 61.4-11.4 62.4-13.2 63.22-15.2 64.05-17.2 64.65-19.1 65.25-21 65.57-22.65 65.9-24.3 65.9-25.5L65.9-25.5Q65.9-27.35 64.87-28.4 63.85-29.45 61.65-29.45L61.65-29.45ZM78.49-1.15L70.39 0.05Q71.89-6.95 73.19-13.55L73.19-13.55Q73.69-16.4 74.24-19.45 74.79-22.5 75.27-25.5 75.74-28.5 76.12-31.33 76.49-34.15 76.69-36.45L76.69-36.45Q77.84-36.35 79.29-36.27 80.74-36.2 81.99-36.1L81.99-36.1Q83.49-36 84.99-36L84.99-36Q84.94-35.8 84.84-35.25 84.74-34.7 84.59-33.93 84.44-33.15 84.27-32.2 84.09-31.25 83.89-30.3L83.89-30.3Q83.49-28.1 82.99-25.35L82.99-25.35 83.29-25.4Q83.79-26.2 84.72-27.63 85.64-29.05 86.64-30.65 87.64-32.25 88.59-33.73 89.54-35.2 90.19-36.25L90.19-36.25Q92.69-36.45 95.19-36.7 97.69-36.95 100.19-37.35L100.19-37.35Q97.84-34.2 95.64-31.15L95.64-31.15Q94.69-29.85 93.72-28.45 92.74-27.05 91.79-25.7 90.84-24.35 90.02-23.1 89.19-21.85 88.54-20.8L88.54-20.8Q89.64-15.75 91.14-11.05 92.64-6.35 94.19-1.45L94.19-1.45Q93.04-1.5 91.84-1.53 90.64-1.55 89.49-1.55L89.49-1.55Q88.04-1.55 86.69-1.53 85.34-1.5 83.89-1.45L83.89-1.45Q83.44-4.7 82.92-8.28 82.39-11.85 81.94-15.1L81.94-15.1 81.04-14.05Q80.69-12.55 80.27-10.35 79.84-8.15 79.44-6.1L79.44-6.1Q78.99-3.7 78.49-1.15L78.49-1.15ZM111.54-1Q110.29-0.8 108.79-0.55 107.29-0.3 106.09-0.1L106.09-0.1Q106.29-1.75 106.49-3.35L106.49-3.35Q106.64-4.75 106.77-6.15 106.89-7.55 106.99-8.55L106.99-8.55 102.64-8.55 100.64-1.35Q99.54-1.2 98.04-1.03 96.54-0.85 95.24-0.7L95.24-0.7Q93.64-0.5 92.09-0.3L92.09-0.3Q94.09-6.95 96.04-13.4L96.04-13.4Q96.84-16.1 97.72-19.05 98.59-22 99.47-24.93 100.34-27.85 101.14-30.55 101.94-33.25 102.54-35.5L102.54-35.5Q105.94-35.75 109.47-36.1 112.99-36.45 116.34-37.05L116.34-37.05Q116.19-35.45 116.02-33.08 115.84-30.7 115.69-27.9 115.54-25.1 115.39-22.05 115.24-19 115.09-16.05L115.09-16.05Q114.84-9.15 114.54-1.4L114.54-1.4Q113.04-1.15 111.54-1L111.54-1ZM106.94-26.1L103.84-13.55Q104.04-13.55 104.57-13.58 105.09-13.6 105.67-13.63 106.24-13.65 106.74-13.68 107.24-13.7 107.44-13.75L107.44-13.75Q107.44-14.05 107.52-14.78 107.59-15.5 107.67-16.43 107.74-17.35 107.84-18.45 107.94-19.55 108.04-20.6L108.04-20.6Q108.24-23.15 108.54-26.1L108.54-26.1 108.84-30.45 108.09-30.4 106.94-26.1ZM123.09-2.05L114.99 0.05Q116.34-6.6 117.59-12.95L117.59-12.95Q118.04-15.65 118.59-18.57 119.14-21.5 119.61-24.38 120.09-27.25 120.51-29.93 120.94-32.6 121.19-34.8L121.19-34.8Q124.04-35.7 127.34-36.13 130.64-36.55 133.89-36.55L133.89-36.55Q135.84-36.55 137.11-36.1 138.39-35.65 139.11-34.83 139.84-34 140.14-32.9 140.44-31.8 140.44-30.45L140.44-30.45Q140.44-28.45 139.74-26.53 139.04-24.6 137.86-22.88 136.69-21.15 135.16-19.73 133.64-18.3 131.89-17.4L131.89-17.4Q132.79-15.4 133.81-13.03 134.84-10.65 135.74-8.5L135.74-8.5Q136.74-6 137.79-3.5L137.79-3.5 130.04-0.8Q129.04-4 128.24-6.8L128.24-6.8Q127.89-7.95 127.54-9.18 127.19-10.4 126.89-11.5 126.59-12.6 126.39-13.48 126.19-14.35 126.14-14.9L126.14-14.9 125.49-14.7Q125.19-13.1 124.76-10.95 124.34-8.8 123.99-6.8L123.99-6.8Q123.54-4.45 123.09-2.05L123.09-2.05ZM128.34-29.6L126.74-21.65Q127.69-21.75 129.06-22.45 130.44-23.15 131.69-24.13 132.94-25.1 133.84-26.15 134.74-27.2 134.74-28L134.74-28Q134.74-28.55 134.39-28.88 134.04-29.2 133.41-29.38 132.79-29.55 132.04-29.6 131.29-29.65 130.49-29.65L130.49-29.65Q129.94-29.65 129.36-29.63 128.79-29.6 128.34-29.6L128.34-29.6ZM150.49-1.35L141.49 0.05Q142.64-5.45 143.69-10.8L143.69-10.8Q144.14-13.05 144.59-15.5 145.04-17.95 145.46-20.33 145.89-22.7 146.21-24.93 146.54-27.15 146.79-29L146.79-29Q145.64-29.15 144.46-29.1 143.29-29.05 142.14-29.4L142.14-29.4Q142.19-30.2 142.19-31.25 142.19-32.3 142.24-33.35L142.24-33.35Q142.29-34.5 142.34-35.8L142.34-35.8Q143.64-35.7 144.94-35.65 146.24-35.6 147.54-35.6L147.54-35.6Q150.09-35.6 152.46-35.73 154.84-35.85 156.86-36.02 158.89-36.2 160.84-36.45L160.84-36.45 160.29-33.75Q160.04-32.6 159.81-31.4 159.59-30.2 159.39-29.35L159.39-29.35Q158.29-29.05 157.16-28.93 156.04-28.8 154.94-28.6L154.94-28.6Q154.59-26.9 154.19-24.83 153.79-22.75 153.41-20.53 153.04-18.3 152.69-16 152.34-13.7 151.99-11.6L151.99-11.6Q151.19-6.65 150.49-1.35L150.49-1.35Z" opacity="1" transform="matrix(1,0,0,1,0,0)" fill="#ffffff" class="undefined-text-0" data-fill-palette-color="primary" id="text-0"></path></svg></g></svg></g></svg></g></svg></g></svg></g></svg></g></svg></g></svg></g><defs></defs></svg><rect width="395.52" height="247.2" fill="none" stroke="none" visibility="hidden"></rect></g></svg></g></svg>